<svg xmlns="http://www.w3.org/2000/svg" xmlns:xlink="http://www.w3.org/1999/xlink" width="132.59" height="48.15" viewBox="0 0 132.59 48.15"><defs><style>.a{fill:#4285f4;}.b{fill:#50c6f0;}.c{fill:#fdce06;}.d{fill:url(#a);}.e{fill:#96e6a1;}.f{fill:url(#b);}.g{fill:#ea4335;}.h{fill:#000d21;}</style><linearGradient id="a" x1="1.154" y1="0.3" x2="2.557" y2="-0.253" gradientUnits="objectBoundingBox"><stop offset="0" stop-color="#fbbc2c"/><stop offset="1" stop-color="#334ab0"/></linearGradient><linearGradient id="b" x1="0.641" y1="1.471" x2="0.767" y2="2.391" gradientUnits="objectBoundingBox"><stop offset="0" stop-color="#34a853"/><stop offset="1" stop-color="#334ab0"/></linearGradient></defs><g transform="translate(-194.02 -179.788)"><path class="a" d="M125.545,231.6c-1.821,2.642-3.909,3.61-5.805,3.61a5.967,5.967,0,0,1-3.1-.891,7.7,7.7,0,0,1-1.353-1.049,9.041,9.041,0,0,0,7.069-4.654c.022-.043.033-.068.033-.068a15.228,15.228,0,0,0,1.081-8.822,28.354,28.354,0,0,0,4.139-1.234C128.442,223.412,127.666,228.516,125.545,231.6Z" transform="translate(93.95 -7.27)"/><path class="b" d="M98.952,165.475a9.044,9.044,0,0,1-7.069,4.654c-3.013-2.872-4.675-8.526-3.888-14.553a13.825,13.825,0,0,1,.952-4.218,23.393,23.393,0,0,1,1.536-3.633,15.594,15.594,0,0,1,2.159-3.386,20.405,20.405,0,0,1,3.187,2.853,11.183,11.183,0,0,0-1.464,2.351l-.059.125a19.268,19.268,0,0,0-1.234,2.869,13.525,13.525,0,0,0-.9,4.181,17.786,17.786,0,0,0,.1,4.319c.511,3.446,1.965,5.874,3.2,6.48.429.209,1.5.91,3.153-1.485C98.726,165.861,98.841,165.676,98.952,165.475Z" transform="translate(117.357 55.868)"/><path class="c" d="M60.148,106.426a19.084,19.084,0,0,1-4.1,1.253,17.542,17.542,0,0,0-3.156-5.246A20.406,20.406,0,0,0,49.7,99.581c-.622-.434-1.305-.826-2.018-1.236-5.278-3.045-8.28-2.41-9.162-1.411a3.178,3.178,0,0,0-.263,3.267c.025.064.055.132.091.2-1.813-3.462-.9-6.8,1.054-8.531,2.33-.349,5.644.2,10.3,2.7a22.645,22.645,0,0,1,6.27,4.914,21.988,21.988,0,0,1,4.175,6.942Z" transform="translate(160.297 100.623)"/><path class="d" d="M25.093,107.137a13.825,13.825,0,0,0-.952,4.222c-5.583-2.13-9.621-6.144-10.773-9.024-1.007-2.516-.763-6.192,1.649-8.348A6.5,6.5,0,0,1,18.49,92.41c-1.954,1.735-2.868,5.069-1.049,8.531a2.055,2.055,0,0,0,.111.212,14.928,14.928,0,0,0,5.532,5,19.633,19.633,0,0,0,2.008.986Z" transform="translate(181.211 100.086)"/><path class="e" d="M138.568,130h0a22.424,22.424,0,0,1-9.356,6.61,28.353,28.353,0,0,1-4.139,1.234c-.169.036-.336.068-.5.1a21.031,21.031,0,0,1-7.4.034,13.525,13.525,0,0,1,.9-4.181,16.831,16.831,0,0,0,5.724-.068l.2-.036a19.083,19.083,0,0,0,4.1-1.253c4.455-1.871,8.079-4.974,8.373-7.482a2.358,2.358,0,0,0-1.545-2.5c-.157-.053-.313-.1-.471-.137C134.591,122.343,138.856,122.96,138.568,130Z" transform="translate(92.349 74.609)"/><path class="f" d="M161.109,100.6a10.78,10.78,0,0,1-2.063,4.022c.288-7.037-3.977-7.653-4.114-7.671h0a9.178,9.178,0,0,0-4.444.193,17.449,17.449,0,0,0-6.089,2.978,23.02,23.02,0,0,0-3.18-2.938,21.937,21.937,0,0,1,8.231-4.2c3.78-.937,7.2-.414,9.633,1.476A5.734,5.734,0,0,1,161.109,100.6Z" transform="translate(71.871 99.982)"/><path class="g" d="M98.865,21.038a9.466,9.466,0,0,0-6.591-6.573.4.4,0,0,1-.01-.762A10.134,10.134,0,0,0,98.85,7.124a.4.4,0,0,1,.76-.009,10.55,10.55,0,0,0,6.57,6.581.4.4,0,0,1-.018.762,9.9,9.9,0,0,0-6.535,6.607.4.4,0,0,1-.763-.027Z" transform="translate(113.782 172.94)"/><path class="h" d="M336.71,117.854V115.2h12.085v2.654h-4.726v12.613h-2.655V117.854Z" transform="translate(-94.586 80.68)"/><path class="h" d="M421.488,150.182a3.768,3.768,0,0,1,.065-.685,3.294,3.294,0,0,1,.342-.879,3.05,3.05,0,0,1,.755-.928,4.1,4.1,0,0,1,1.411-.686,7.575,7.575,0,0,1,2.2-.285,13.409,13.409,0,0,1,1.938.149q0-2.1-2.336-2.1a8.543,8.543,0,0,0-3.241.561v-2.177a9.774,9.774,0,0,1,3.4-.561,5.008,5.008,0,0,1,3.61,1.2,4.594,4.594,0,0,1,1.249,3.48v2.979a3.509,3.509,0,0,1-1.136,2.617,4.885,4.885,0,0,1-3.5,1.095,5.064,5.064,0,0,1-3.6-1.1A3.565,3.565,0,0,1,421.488,150.182Zm2.655-.334q0,1.769,2.079,1.769h.022q1.98,0,1.98-1.672v-1.392a13,13,0,0,0-1.582-.14Q424.154,148.413,424.144,149.848Z" transform="translate(-166.773 57.363)"/><path class="h" d="M491,156.969a5.026,5.026,0,0,0,1.2-.189.992.992,0,0,0,.612-.453,1.88,1.88,0,0,0,.2-.527,4.9,4.9,0,0,0,.037-.705V143.75h2.658v11.176a8.419,8.419,0,0,1-.076,1.219,3.6,3.6,0,0,1-.361,1.074,2.448,2.448,0,0,1-.783.916,4.653,4.653,0,0,1-1.381.6,8.864,8.864,0,0,1-2.1.3Z" transform="translate(-225.961 56.37)"/><path class="h" d="M539.268,150.182a3.64,3.64,0,0,1,.065-.685,3.294,3.294,0,0,1,.342-.879,3.008,3.008,0,0,1,.754-.928A4.088,4.088,0,0,1,541.84,147a7.565,7.565,0,0,1,2.2-.285,13.4,13.4,0,0,1,1.931.149q0-2.1-2.335-2.1a8.543,8.543,0,0,0-3.241.561v-2.177a9.771,9.771,0,0,1,3.391-.561,5.008,5.008,0,0,1,3.61,1.2,4.6,4.6,0,0,1,1.25,3.48v2.979a3.511,3.511,0,0,1-1.138,2.617,4.878,4.878,0,0,1-3.5,1.095,5.064,5.064,0,0,1-3.6-1.1A3.564,3.564,0,0,1,539.268,150.182Zm2.654-.334q0,1.769,2.079,1.769h.021q1.981,0,1.981-1.672v-1.392a13.047,13.047,0,0,0-1.583-.14Q541.932,148.413,541.922,149.848Z" transform="translate(-267.06 57.363)"/><path class="h" d="M621.81,153.79v-11.2l2.577.358-.019.829a8.281,8.281,0,0,1,3.774-.9v2.277a7.649,7.649,0,0,0-3.677.869v7.772Z" transform="translate(-337.344 57.358)"/><path class="h" d="M671.178,152.624a6.015,6.015,0,0,1-1.349-4.209,7.939,7.939,0,0,1,1.349-4.207,5.824,5.824,0,0,1,7.73,0,7.24,7.24,0,0,1,0,8.416,5.824,5.824,0,0,1-7.73,0Zm1.931-6.98a4.4,4.4,0,0,0-.631,2.779,4.3,4.3,0,0,0,.645,2.771,2.957,2.957,0,0,0,3.861,0,6.473,6.473,0,0,0,0-5.551,2.938,2.938,0,0,0-3.861,0Z" transform="translate(-378.232 57.23)"/><path class="h" d="M755.268,152.624a7.24,7.24,0,0,1,0-8.416,5.824,5.824,0,0,1,7.73,0,7.24,7.24,0,0,1,0,8.416,5.824,5.824,0,0,1-7.73,0Zm1.931-6.98a6.416,6.416,0,0,0,0,5.55,2.957,2.957,0,0,0,3.861,0,6.46,6.46,0,0,0,0-5.551,2.939,2.939,0,0,0-3.861,0Z" transform="translate(-449.834 57.23)"/><path class="h" d="M841.079,126.924V115.2h2.661v4.24a10.206,10.206,0,0,1,1.813-.172,4.887,4.887,0,0,1,3.781,1.433,5.87,5.87,0,0,1,1.322,4.124,8.079,8.079,0,0,1-.386,2.611,4.985,4.985,0,0,1-.913,1.714,4.219,4.219,0,0,1-1.262.951,4.576,4.576,0,0,1-1.279.454,6.871,6.871,0,0,1-1.09.086,4.9,4.9,0,0,1-3.5-1.092A3.507,3.507,0,0,1,841.079,126.924Zm2.661.25q0,1.188,1.986,1.188a1.885,1.885,0,0,0,1.77-.86A5.819,5.819,0,0,0,848,124.68a3.982,3.982,0,0,0-.653-2.6,2.382,2.382,0,0,0-1.894-.743,7.228,7.228,0,0,0-1.715.19Z" transform="translate(-524.048 80.68)"/><path class="h" d="M336.71,267.851a1.686,1.686,0,0,1,1.782-1.721,1.507,1.507,0,0,1,1.378.72l-.466.3a1.053,1.053,0,0,0-.918-.484,1.188,1.188,0,0,0,0,2.376,1.054,1.054,0,0,0,.918-.486l.466.3a1.511,1.511,0,0,1-1.378.726A1.688,1.688,0,0,1,336.71,267.851Z" transform="translate(-94.586 -47.834)"/><path class="h" d="M366.386,268.045h-2.742a1.143,1.143,0,0,0,1.224.989,1.265,1.265,0,0,0,.98-.41l.339.4a1.846,1.846,0,0,1-3.154-1.181,1.656,1.656,0,0,1,1.7-1.721,1.629,1.629,0,0,1,1.671,1.741A1.655,1.655,0,0,1,366.386,268.045Zm-2.742-.446h2.168a1.092,1.092,0,0,0-2.168,0Z" transform="translate(-116.998 -47.823)"/><path class="h" d="M393.57,257.24h.612v4.733h-.612Z" transform="translate(-143.001 -40.265)"/><path class="h" d="M408.92,268.053h-2.742a1.143,1.143,0,0,0,1.224.989,1.265,1.265,0,0,0,.976-.408l.339.4a1.846,1.846,0,0,1-3.154-1.181,1.656,1.656,0,0,1,1.7-1.721,1.629,1.629,0,0,1,1.671,1.741A1.648,1.648,0,0,1,408.92,268.053Zm-2.742-.446h2.168a1.092,1.092,0,0,0-2.168,0Z" transform="translate(-153.212 -47.831)"/><path class="h" d="M439.632,260.282a1.643,1.643,0,0,1-1.709,1.729,1.432,1.432,0,0,1-1.206-.573v.536h-.587V257.24h.612V259.1a1.438,1.438,0,0,1,1.181-.542A1.641,1.641,0,0,1,439.632,260.282Zm-.619,0a1.139,1.139,0,1,0-1.142,1.188A1.116,1.116,0,0,0,439.013,260.282Z" transform="translate(-179.24 -40.265)"/><path class="h" d="M469.378,266.13v.594a1.145,1.145,0,0,0-.14,0,1.008,1.008,0,0,0-1.065,1.142v1.684h-.613v-3.389h.587v.569A1.294,1.294,0,0,1,469.378,266.13Z" transform="translate(-206.003 -47.834)"/><path class="h" d="M488.141,267.5v2.042h-.579V269.1a1.257,1.257,0,0,1-1.111.484c-.765,0-1.25-.408-1.25-1,0-.542.352-.988,1.359-.988h.97v-.122c0-.517-.3-.817-.906-.817a1.712,1.712,0,0,0-1.071.364l-.255-.459a2.249,2.249,0,0,1,1.4-.434C487.619,266.133,488.141,266.578,488.141,267.5Zm-.612,1.008v-.468h-.945c-.606,0-.778.236-.778.523,0,.339.281.548.743.548a.988.988,0,0,0,.982-.6Z" transform="translate(-221.023 -47.837)"/><path class="h" d="M513.908,265.265a1.147,1.147,0,0,1-.743.236.964.964,0,0,1-1.071-1.059v-1.855h-.575v-.5h.575v-.743h.612v.743h.97v.5h-.97v1.83a.5.5,0,0,0,.529.567.764.764,0,0,0,.478-.159Z" transform="translate(-243.434 -43.756)"/><path class="h" d="M534,256.992a.4.4,0,0,1,.414-.4.4.4,0,1,1-.414.4Zm.108,1.04h.612v3.382h-.612Z" transform="translate(-262.575 -39.71)"/><path class="h" d="M552.068,267.6v1.946h-.612v-1.874c0-.664-.331-.989-.912-.989a1,1,0,0,0-1.072,1.123v1.742h-.612v-3.382h.587v.511a1.45,1.45,0,0,1,1.218-.542A1.31,1.31,0,0,1,552.068,267.6Z" transform="translate(-275.228 -47.834)"/><path class="h" d="M581.844,266.2v2.92a1.539,1.539,0,0,1-1.754,1.736,2.5,2.5,0,0,1-1.614-.5l.3-.472a2.057,2.057,0,0,0,1.3.446c.8,0,1.16-.37,1.16-1.136v-.267a1.545,1.545,0,0,1-1.218.523,1.636,1.636,0,1,1,0-3.267,1.542,1.542,0,0,1,1.25.554V266.2Zm-.594,1.6a1.166,1.166,0,0,0-2.329,0,1.163,1.163,0,0,0,2.323,0Z" transform="translate(-300.296 -47.869)"/><path class="h" d="M628.582,268.783h-2.743a1.143,1.143,0,0,0,1.224.989,1.262,1.262,0,0,0,.976-.408l.339.4a1.846,1.846,0,0,1-3.154-1.181,1.656,1.656,0,0,1,1.7-1.721,1.629,1.629,0,0,1,1.671,1.741A1.337,1.337,0,0,1,628.582,268.783Zm-2.743-.446h2.171a1.092,1.092,0,0,0-2.168,0Z" transform="translate(-340.249 -48.453)"/><path class="h" d="M654.486,270.452l-.976-1.3-.989,1.3h-.682l1.337-1.729-1.268-1.653h.682l.931,1.219.925-1.219h.67l-1.276,1.653,1.346,1.729Z" transform="translate(-362.914 -48.635)"/><path class="h" d="M684.5,268.574a1.643,1.643,0,0,1-1.709,1.729,1.444,1.444,0,0,1-1.188-.548V271.5H681v-4.619h.594v.536a1.442,1.442,0,0,1,1.206-.567A1.639,1.639,0,0,1,684.5,268.574Zm-.619,0a1.139,1.139,0,1,0-1.142,1.188A1.119,1.119,0,0,0,683.883,268.574Z" transform="translate(-387.744 -48.449)"/><path class="h" d="M713.668,268.786h-2.743a1.146,1.146,0,0,0,1.225.989,1.265,1.265,0,0,0,.976-.408l.339.4a1.846,1.846,0,0,1-3.154-1.181,1.651,1.651,0,0,1,1.7-1.721,1.63,1.63,0,0,1,1.672,1.741A1.01,1.01,0,0,1,713.668,268.786Zm-2.743-.446h2.17a1.092,1.092,0,0,0-2.17,0Z" transform="translate(-412.701 -48.456)"/><path class="h" d="M742.645,266.86v.594a1.2,1.2,0,0,0-.149,0,1.009,1.009,0,0,0-1.065,1.142v1.684h-.612v-3.389h.594v.569A1.288,1.288,0,0,1,742.645,266.86Z" transform="translate(-438.68 -48.456)"/><path class="h" d="M759.59,257.692a.4.4,0,0,1,.414-.4.4.4,0,1,1-.414.4Zm.108,1.04h.612v3.382H759.7Z" transform="translate(-454.662 -40.306)"/><path class="h" d="M775.679,268.786h-2.743a1.144,1.144,0,0,0,1.225.989,1.267,1.267,0,0,0,.976-.408l.337.4a1.846,1.846,0,0,1-3.154-1.181,1.65,1.65,0,0,1,1.7-1.721,1.63,1.63,0,0,1,1.672,1.741A1.337,1.337,0,0,1,775.679,268.786Zm-2.743-.446H775.1a1.092,1.092,0,0,0-2.168,0Z" transform="translate(-465.501 -48.456)"/><path class="h" d="M806.088,268.327v1.946h-.612V268.4c0-.664-.331-.989-.912-.989a1,1,0,0,0-1.072,1.123v1.742h-.612v-3.382h.594v.511a1.45,1.45,0,0,1,1.218-.542A1.3,1.3,0,0,1,806.088,268.327Z" transform="translate(-491.523 -48.456)"/><path class="h" d="M832.3,268.581a1.686,1.686,0,0,1,1.782-1.721,1.507,1.507,0,0,1,1.378.72l-.465.3a1.056,1.056,0,0,0-.919-.484,1.188,1.188,0,0,0,0,2.376,1.054,1.054,0,0,0,.919-.486l.465.3a1.512,1.512,0,0,1-1.378.726A1.688,1.688,0,0,1,832.3,268.581Z" transform="translate(-516.573 -48.456)"/><path class="h" d="M861.943,268.783H859.2a1.143,1.143,0,0,0,1.224.989,1.268,1.268,0,0,0,.977-.408l.337.4a1.847,1.847,0,0,1-3.156-1.181,1.656,1.656,0,0,1,1.7-1.721,1.629,1.629,0,0,1,1.671,1.741A1.13,1.13,0,0,1,861.943,268.783Zm-2.743-.446h2.168a1.092,1.092,0,0,0-2.168,0Z" transform="translate(-538.951 -48.453)"/><path class="h" d="M886.28,269.913l.255-.484a2.179,2.179,0,0,0,1.188.35c.567,0,.8-.172.8-.459,0-.759-2.137-.1-2.137-1.448,0-.606.542-1.014,1.409-1.014a2.454,2.454,0,0,1,1.231.306l-.267.484a1.767,1.767,0,0,0-.976-.267c-.536,0-.8.2-.8.466,0,.8,2.143.148,2.143,1.46,0,.612-.561,1-1.46,1A2.441,2.441,0,0,1,886.28,269.913Z" transform="translate(-562.536 -48.454)"/></g></svg>